<svg width="40" height="40" viewBox="143.84 0 40 40" fill="none" xmlns="http://www.w3.org/2000/svg">
<rect x="143.84" width="40" height="40" rx="12" fill="#F3F3F7"/>
<path d="M155.84 28V26H158.59L158.19 25.65C157.323 24.8833 156.715 24.0083 156.365 23.025C156.015 22.0417 155.84 21.05 155.84 20.05C155.84 18.2 156.394 16.5542 157.502 15.1125C158.611 13.6708 160.057 12.7167 161.84 12.25V14.35C160.64 14.7833 159.673 15.5208 158.94 16.5625C158.207 17.6042 157.84 18.7667 157.84 20.05C157.84 20.8 157.982 21.5292 158.265 22.2375C158.548 22.9458 158.99 23.6 159.59 24.2L159.84 24.45V22H161.84V28H155.84ZM165.84 27.75V25.65C167.04 25.2167 168.007 24.4792 168.74 23.4375C169.473 22.3958 169.84 21.2333 169.84 19.95C169.84 19.2 169.698 18.4708 169.415 17.7625C169.132 17.0542 168.69 16.4 168.09 15.8L167.84 15.55V18H165.84V12H171.84V14H169.09L169.49 14.35C170.307 15.1667 170.902 16.0542 171.277 17.0125C171.652 17.9708 171.84 18.95 171.84 19.95C171.84 21.8 171.286 23.4458 170.177 24.8875C169.069 26.3292 167.623 27.2833 165.84 27.75Z" fill="#3F5B93"/>
</svg>
