<svg width="44" height="44" viewBox="0 0 44 44" fill="none" xmlns="http://www.w3.org/2000/svg">
<g filter="url(#filter0_d_2301_3114)">
<rect x="2" y="1" width="40" height="40" rx="12" fill="#3F5B93" fill-opacity="0.2" shape-rendering="crispEdges"/>
<path d="M20.275 21C19.8083 21 19.425 20.825 19.125 20.475C18.825 20.125 18.7167 19.7167 18.8 19.25L19.1 17.45C19.2333 16.7333 19.5708 16.1458 20.1125 15.6875C20.6542 15.2292 21.2833 15 22 15C22.7333 15 23.3708 15.2292 23.9125 15.6875C24.4542 16.1458 24.7917 16.7333 24.925 17.45L25.225 19.25C25.3083 19.7167 25.2 20.125 24.9 20.475C24.6 20.825 24.2167 21 23.75 21H20.275ZM20.875 19H23.15L22.95 17.775C22.9167 17.5417 22.8083 17.3542 22.625 17.2125C22.4417 17.0708 22.2333 17 22 17C21.7667 17 21.5625 17.0708 21.3875 17.2125C21.2125 17.3542 21.1083 17.5417 21.075 17.775L20.875 19ZM13.1 21.975C12.7167 21.9917 12.3875 21.9167 12.1125 21.75C11.8375 21.5833 11.6583 21.325 11.575 20.975C11.5417 20.825 11.5333 20.675 11.55 20.525C11.5667 20.375 11.6083 20.2333 11.675 20.1C11.675 20.1167 11.6667 20.0833 11.65 20C11.6167 19.9667 11.5333 19.7667 11.4 19.4C11.3667 19.2 11.3917 19.0083 11.475 18.825C11.5583 18.6417 11.6667 18.4833 11.8 18.35C11.8 18.35 11.8167 18.3333 11.85 18.3C11.8833 17.9833 12.0125 17.7167 12.2375 17.5C12.4625 17.2833 12.7417 17.175 13.075 17.175C13.125 17.175 13.2833 17.2083 13.55 17.275C13.55 17.275 13.575 17.2667 13.625 17.25C13.7083 17.1667 13.8167 17.1042 13.95 17.0625C14.0833 17.0208 14.225 17 14.375 17C14.5583 17 14.7208 17.0292 14.8625 17.0875C15.0042 17.1458 15.1167 17.2333 15.2 17.35C15.2167 17.35 15.2292 17.3542 15.2375 17.3625C15.2458 17.3708 15.2583 17.375 15.275 17.375C15.5083 17.3917 15.7125 17.4625 15.8875 17.5875C16.0625 17.7125 16.1917 17.8833 16.275 18.1C16.3083 18.2167 16.3208 18.3292 16.3125 18.4375C16.3042 18.5458 16.2833 18.65 16.25 18.75C16.25 18.7667 16.2583 18.8 16.275 18.85C16.3917 18.9667 16.4833 19.0958 16.55 19.2375C16.6167 19.3792 16.65 19.525 16.65 19.675C16.65 19.7417 16.6 19.9167 16.5 20.2C16.4833 20.2333 16.4833 20.2667 16.5 20.3C16.5 20.3 16.5167 20.4333 16.55 20.7C16.55 21.05 16.4042 21.35 16.1125 21.6C15.8208 21.85 15.4667 21.975 15.05 21.975H13.1ZM30 22C29.45 22 28.9792 21.8042 28.5875 21.4125C28.1958 21.0208 28 20.55 28 20C28 19.8 28.0292 19.6125 28.0875 19.4375C28.1458 19.2625 28.225 19.0917 28.325 18.925L27.625 18.3C27.4583 18.1667 27.4292 18 27.5375 17.8C27.6458 17.6 27.8 17.5 28 17.5H30C30.55 17.5 31.0208 17.6958 31.4125 18.0875C31.8042 18.4792 32 18.95 32 19.5V20C32 20.55 31.8042 21.0208 31.4125 21.4125C31.0208 21.8042 30.55 22 30 22ZM10 27V25.425C10 24.6917 10.3708 24.1042 11.1125 23.6625C11.8542 23.2208 12.8167 23 14 23C14.2167 23 14.425 23.0042 14.625 23.0125C14.825 23.0208 15.0167 23.0417 15.2 23.075C14.9667 23.4083 14.7917 23.7667 14.675 24.15C14.5583 24.5333 14.5 24.9417 14.5 25.375V27H10ZM16 27V25.375C16 24.2917 16.5542 23.4167 17.6625 22.75C18.7708 22.0833 20.2167 21.75 22 21.75C23.8 21.75 25.25 22.0833 26.35 22.75C27.45 23.4167 28 24.2917 28 25.375V27H16ZM30 23C31.2 23 32.1667 23.2208 32.9 23.6625C33.6333 24.1042 34 24.6917 34 25.425V27H29.5V25.375C29.5 24.9417 29.4458 24.5333 29.3375 24.15C29.2292 23.7667 29.0667 23.4083 28.85 23.075C29.0333 23.0417 29.2208 23.0208 29.4125 23.0125C29.6042 23.0042 29.8 23 30 23ZM22 23.75C21.05 23.75 20.2 23.875 19.45 24.125C18.7 24.375 18.2583 24.6667 18.125 25H25.9C25.75 24.6667 25.3042 24.375 24.5625 24.125C23.8208 23.875 22.9667 23.75 22 23.75Z" fill="#3F5B93"/>
</g>
<defs>
<filter id="filter0_d_2301_3114" x="0" y="0" width="44" height="44" filterUnits="userSpaceOnUse" color-interpolation-filters="sRGB">
<feFlood flood-opacity="0" result="BackgroundImageFix"/>
<feColorMatrix in="SourceAlpha" type="matrix" values="0 0 0 0 0 0 0 0 0 0 0 0 0 0 0 0 0 0 127 0" result="hardAlpha"/>
<feOffset dy="1"/>
<feGaussianBlur stdDeviation="1"/>
<feComposite in2="hardAlpha" operator="out"/>
<feColorMatrix type="matrix" values="0 0 0 0 0 0 0 0 0 0 0 0 0 0 0 0 0 0 0.05 0"/>
<feBlend mode="normal" in2="BackgroundImageFix" result="effect1_dropShadow_2301_3114"/>
<feBlend mode="normal" in="SourceGraphic" in2="effect1_dropShadow_2301_3114" result="shape"/>
</filter>
</defs>
</svg>
