<svg width="11" height="11" viewBox="0 0 11 11" fill="none" xmlns="http://www.w3.org/2000/svg">
<path d="M5.49933 5.49933C4.74317 5.49933 4.09585 5.23009 3.55738 4.69161C3.0189 4.15314 2.74966 3.50582 2.74966 2.74966C2.74966 1.99351 3.0189 1.34619 3.55738 0.807714C4.09585 0.269238 4.74317 0 5.49933 0C6.25549 0 6.9028 0.269238 7.44128 0.807714C7.97975 1.34619 8.24899 1.99351 8.24899 2.74966C8.24899 3.50582 7.97975 4.15314 7.44128 4.69161C6.9028 5.23009 6.25549 5.49933 5.49933 5.49933ZM0 10.9987V9.07389C0 8.68436 0.100248 8.32633 0.300745 7.9998C0.501241 7.67328 0.767615 7.42409 1.09987 7.25224C1.8102 6.89707 2.53198 6.6307 3.26523 6.45312C3.99847 6.27554 4.74317 6.18674 5.49933 6.18674C6.25549 6.18674 7.00019 6.27554 7.73343 6.45312C8.46667 6.6307 9.18846 6.89707 9.89879 7.25224C10.231 7.42409 10.4974 7.67328 10.6979 7.9998C10.8984 8.32633 10.9987 8.68436 10.9987 9.07389V10.9987H0ZM1.37483 9.62382H9.62382V9.07389C9.62382 8.94787 9.59232 8.8333 9.52931 8.73018C9.46629 8.62707 9.38323 8.54687 9.28012 8.48959C8.66144 8.18025 8.03704 7.94825 7.40691 7.79358C6.77678 7.63891 6.14092 7.56158 5.49933 7.56158C4.85774 7.56158 4.22188 7.63891 3.59175 7.79358C2.96162 7.94825 2.33721 8.18025 1.71854 8.48959C1.61543 8.54687 1.53236 8.62707 1.46935 8.73018C1.40634 8.8333 1.37483 8.94787 1.37483 9.07389V9.62382ZM5.49933 4.1245C5.87741 4.1245 6.20107 3.98988 6.4703 3.72064C6.73954 3.4514 6.87416 3.12774 6.87416 2.74966C6.87416 2.37159 6.73954 2.04793 6.4703 1.77869C6.20107 1.50945 5.87741 1.37483 5.49933 1.37483C5.12125 1.37483 4.79759 1.50945 4.52835 1.77869C4.25912 2.04793 4.1245 2.37159 4.1245 2.74966C4.1245 3.12774 4.25912 3.4514 4.52835 3.72064C4.79759 3.98988 5.12125 4.1245 5.49933 4.1245Z" fill="#3F5B93"/>
</svg>
