<svg width="44" height="44" viewBox="0 0 44 44" fill="none" xmlns="http://www.w3.org/2000/svg">
<g filter="url(#filter0_d_2301_3127)">
<rect x="2" y="1" width="40" height="40" rx="12" fill="#3F5B93" fill-opacity="0.2" shape-rendering="crispEdges"/>
<path d="M18 27L22 23.95L26 27L24.5 22.05L28.5 19.2H23.6L22 14L20.4 19.2H15.5L19.5 22.05L18 27ZM22 31C20.6167 31 19.3167 30.7375 18.1 30.2125C16.8833 29.6875 15.825 28.975 14.925 28.075C14.025 27.175 13.3125 26.1167 12.7875 24.9C12.2625 23.6833 12 22.3833 12 21C12 19.6167 12.2625 18.3167 12.7875 17.1C13.3125 15.8833 14.025 14.825 14.925 13.925C15.825 13.025 16.8833 12.3125 18.1 11.7875C19.3167 11.2625 20.6167 11 22 11C23.3833 11 24.6833 11.2625 25.9 11.7875C27.1167 12.3125 28.175 13.025 29.075 13.925C29.975 14.825 30.6875 15.8833 31.2125 17.1C31.7375 18.3167 32 19.6167 32 21C32 22.3833 31.7375 23.6833 31.2125 24.9C30.6875 26.1167 29.975 27.175 29.075 28.075C28.175 28.975 27.1167 29.6875 25.9 30.2125C24.6833 30.7375 23.3833 31 22 31ZM22 29C24.2333 29 26.125 28.225 27.675 26.675C29.225 25.125 30 23.2333 30 21C30 18.7667 29.225 16.875 27.675 15.325C26.125 13.775 24.2333 13 22 13C19.7667 13 17.875 13.775 16.325 15.325C14.775 16.875 14 18.7667 14 21C14 23.2333 14.775 25.125 16.325 26.675C17.875 28.225 19.7667 29 22 29Z" fill="#3F5B93"/>
</g>
<defs>
<filter id="filter0_d_2301_3127" x="0" y="0" width="44" height="44" filterUnits="userSpaceOnUse" color-interpolation-filters="sRGB">
<feFlood flood-opacity="0" result="BackgroundImageFix"/>
<feColorMatrix in="SourceAlpha" type="matrix" values="0 0 0 0 0 0 0 0 0 0 0 0 0 0 0 0 0 0 127 0" result="hardAlpha"/>
<feOffset dy="1"/>
<feGaussianBlur stdDeviation="1"/>
<feComposite in2="hardAlpha" operator="out"/>
<feColorMatrix type="matrix" values="0 0 0 0 0 0 0 0 0 0 0 0 0 0 0 0 0 0 0.05 0"/>
<feBlend mode="normal" in2="BackgroundImageFix" result="effect1_dropShadow_2301_3127"/>
<feBlend mode="normal" in="SourceGraphic" in2="effect1_dropShadow_2301_3127" result="shape"/>
</filter>
</defs>
</svg>
