<svg width="44" height="44" viewBox="0 0 44 44" fill="none" xmlns="http://www.w3.org/2000/svg">
<g filter="url(#filter0_d_2301_3101)">
<rect x="2" y="1" width="40" height="40" rx="12" fill="#3F5B93" fill-opacity="0.2" shape-rendering="crispEdges"/>
<path d="M22 30.75C21.2 30.1167 20.3333 29.625 19.4 29.275C18.4667 28.925 17.5 28.75 16.5 28.75C15.8 28.75 15.1125 28.8417 14.4375 29.025C13.7625 29.2083 13.1167 29.4667 12.5 29.8C12.15 29.9833 11.8125 29.975 11.4875 29.775C11.1625 29.575 11 29.2833 11 28.9V16.85C11 16.6667 11.0458 16.4917 11.1375 16.325C11.2292 16.1583 11.3667 16.0333 11.55 15.95C12.3167 15.55 13.1167 15.25 13.95 15.05C14.7833 14.85 15.6333 14.75 16.5 14.75C17.4667 14.75 18.4125 14.875 19.3375 15.125C20.2625 15.375 21.15 15.75 22 16.25V28.35C22.85 27.8167 23.7417 27.4167 24.675 27.15C25.6083 26.8833 26.55 26.75 27.5 26.75C28.1 26.75 28.6875 26.8 29.2625 26.9C29.8375 27 30.4167 27.15 31 27.35V15.35C31.25 15.4333 31.4958 15.5208 31.7375 15.6125C31.9792 15.7042 32.2167 15.8167 32.45 15.95C32.6333 16.0333 32.7708 16.1583 32.8625 16.325C32.9542 16.4917 33 16.6667 33 16.85V28.9C33 29.2833 32.8375 29.575 32.5125 29.775C32.1875 29.975 31.85 29.9833 31.5 29.8C30.8833 29.4667 30.2375 29.2083 29.5625 29.025C28.8875 28.8417 28.2 28.75 27.5 28.75C26.5 28.75 25.5333 28.925 24.6 29.275C23.6667 29.625 22.8 30.1167 22 30.75ZM24 25.75V16.25L29 11.25V21.25L24 25.75ZM20 27.375V17.475C19.45 17.2417 18.8792 17.0625 18.2875 16.9375C17.6958 16.8125 17.1 16.75 16.5 16.75C15.8833 16.75 15.2833 16.8083 14.7 16.925C14.1167 17.0417 13.55 17.2167 13 17.45V27.375C13.5833 27.1583 14.1625 27 14.7375 26.9C15.3125 26.8 15.9 26.75 16.5 26.75C17.1 26.75 17.6875 26.8 18.2625 26.9C18.8375 27 19.4167 27.1583 20 27.375ZM20 27.375V17.475V27.375Z" fill="#3F5B93"/>
</g>
<defs>
<filter id="filter0_d_2301_3101" x="0" y="0" width="44" height="44" filterUnits="userSpaceOnUse" color-interpolation-filters="sRGB">
<feFlood flood-opacity="0" result="BackgroundImageFix"/>
<feColorMatrix in="SourceAlpha" type="matrix" values="0 0 0 0 0 0 0 0 0 0 0 0 0 0 0 0 0 0 127 0" result="hardAlpha"/>
<feOffset dy="1"/>
<feGaussianBlur stdDeviation="1"/>
<feComposite in2="hardAlpha" operator="out"/>
<feColorMatrix type="matrix" values="0 0 0 0 0 0 0 0 0 0 0 0 0 0 0 0 0 0 0.05 0"/>
<feBlend mode="normal" in2="BackgroundImageFix" result="effect1_dropShadow_2301_3101"/>
<feBlend mode="normal" in="SourceGraphic" in2="effect1_dropShadow_2301_3101" result="shape"/>
</filter>
</defs>
</svg>
