<svg width="44" height="44" viewBox="0 0 44 44" fill="none" xmlns="http://www.w3.org/2000/svg">
<g filter="url(#filter0_d_2301_3505)">
<rect x="2" y="1" width="40" height="40" rx="12" fill="#5974AD" shape-rendering="crispEdges"/>
<path d="M26.5 21.75L22.35 17.7C21.8333 17.2 21.3958 16.6458 21.0375 16.0375C20.6792 15.4292 20.5 14.7667 20.5 14.05C20.5 13.1333 20.8208 12.3542 21.4625 11.7125C22.1042 11.0708 22.8833 10.75 23.8 10.75C24.3333 10.75 24.8333 10.8625 25.3 11.0875C25.7667 11.3125 26.1667 11.6167 26.5 12C26.8333 11.6167 27.2333 11.3125 27.7 11.0875C28.1667 10.8625 28.6667 10.75 29.2 10.75C30.1167 10.75 30.8958 11.0708 31.5375 11.7125C32.1792 12.3542 32.5 13.1333 32.5 14.05C32.5 14.7667 32.325 15.4292 31.975 16.0375C31.625 16.6458 31.1917 17.2 30.675 17.7L26.5 21.75ZM26.5 18.95L29.225 16.275C29.5417 15.9583 29.8333 15.6208 30.1 15.2625C30.3667 14.9042 30.5 14.5 30.5 14.05C30.5 13.6833 30.375 13.375 30.125 13.125C29.875 12.875 29.5667 12.75 29.2 12.75C28.9667 12.75 28.7458 12.7958 28.5375 12.8875C28.3292 12.9792 28.15 13.1167 28 13.3L26.5 15.1L25 13.3C24.85 13.1167 24.6708 12.9792 24.4625 12.8875C24.2542 12.7958 24.0333 12.75 23.8 12.75C23.4333 12.75 23.125 12.875 22.875 13.125C22.625 13.375 22.5 13.6833 22.5 14.05C22.5 14.5 22.6333 14.9042 22.9 15.2625C23.1667 15.6208 23.4583 15.9583 23.775 16.275L26.5 18.95ZM17.5 27.25L24.45 29.15L30.4 27.3C30.3167 27.15 30.1958 27.0208 30.0375 26.9125C29.8792 26.8042 29.7 26.75 29.5 26.75H24.45C24 26.75 23.6417 26.7333 23.375 26.7C23.1083 26.6667 22.8333 26.6 22.55 26.5L20.225 25.725L20.775 23.775L22.8 24.45C23.0833 24.5333 23.4167 24.6 23.8 24.65C24.1833 24.7 24.75 24.7333 25.5 24.75C25.5 24.5667 25.4458 24.3917 25.3375 24.225C25.2292 24.0583 25.1 23.95 24.95 23.9L19.1 21.75H17.5V27.25ZM11.5 30.75V19.75H19.1C19.2167 19.75 19.3333 19.7625 19.45 19.7875C19.5667 19.8125 19.675 19.8417 19.775 19.875L25.65 22.05C26.2 22.25 26.6458 22.6 26.9875 23.1C27.3292 23.6 27.5 24.15 27.5 24.75H29.5C30.3333 24.75 31.0417 25.025 31.625 25.575C32.2083 26.125 32.5 26.85 32.5 27.75V28.75L24.5 31.25L17.5 29.3V30.75H11.5ZM13.5 28.75H15.5V21.75H13.5V28.75Z" fill="white"/>
</g>
<defs>
<filter id="filter0_d_2301_3505" x="0" y="0" width="44" height="44" filterUnits="userSpaceOnUse" color-interpolation-filters="sRGB">
<feFlood flood-opacity="0" result="BackgroundImageFix"/>
<feColorMatrix in="SourceAlpha" type="matrix" values="0 0 0 0 0 0 0 0 0 0 0 0 0 0 0 0 0 0 127 0" result="hardAlpha"/>
<feOffset dy="1"/>
<feGaussianBlur stdDeviation="1"/>
<feComposite in2="hardAlpha" operator="out"/>
<feColorMatrix type="matrix" values="0 0 0 0 0 0 0 0 0 0 0 0 0 0 0 0 0 0 0.05 0"/>
<feBlend mode="normal" in2="BackgroundImageFix" result="effect1_dropShadow_2301_3505"/>
<feBlend mode="normal" in="SourceGraphic" in2="effect1_dropShadow_2301_3505" result="shape"/>
</filter>
</defs>
</svg>
